<mxfile host="app.diagrams.net" modified="2023-03-17T15:12:13.547Z" agent="5.0 (Windows NT 10.0; Win64; x64) AppleWebKit/537.36 (KHTML, like Gecko) Chrome/111.0.0.0 Safari/537.36 Edg/111.0.1661.41" etag="pICpdPSieuAv2O175w0L" version="21.0.6" type="github">
  <diagram name="第 1 页" id="AI5iocT0Zc6IOnxWYvlK">
    <mxGraphModel dx="1621" dy="470" grid="1" gridSize="10" guides="1" tooltips="1" connect="1" arrows="1" fold="1" page="1" pageScale="1" pageWidth="827" pageHeight="1169" math="0" shadow="0">
      <root>
        <mxCell id="0" />
        <mxCell id="1" parent="0" />
        <mxCell id="PmZG84Nu5TXr525l0W39-1" value="首页" style="shape=umlLifeline;perimeter=lifelinePerimeter;whiteSpace=wrap;html=1;container=1;dropTarget=0;collapsible=0;recursiveResize=0;outlineConnect=0;portConstraint=eastwest;newEdgeStyle={&quot;edgeStyle&quot;:&quot;elbowEdgeStyle&quot;,&quot;elbow&quot;:&quot;vertical&quot;,&quot;curved&quot;:0,&quot;rounded&quot;:0};participant=umlControl;" vertex="1" parent="1">
          <mxGeometry x="60" y="340" width="70" height="940" as="geometry" />
        </mxCell>
        <mxCell id="PmZG84Nu5TXr525l0W39-2" value="MainController" style="shape=umlLifeline;perimeter=lifelinePerimeter;whiteSpace=wrap;html=1;container=1;dropTarget=0;collapsible=0;recursiveResize=0;outlineConnect=0;portConstraint=eastwest;newEdgeStyle={&quot;edgeStyle&quot;:&quot;elbowEdgeStyle&quot;,&quot;elbow&quot;:&quot;vertical&quot;,&quot;curved&quot;:0,&quot;rounded&quot;:0};participant=umlControl;" vertex="1" parent="1">
          <mxGeometry x="460" y="330" width="110" height="970" as="geometry" />
        </mxCell>
        <mxCell id="PmZG84Nu5TXr525l0W39-3" value="关于我们页面" style="shape=umlLifeline;perimeter=lifelinePerimeter;whiteSpace=wrap;html=1;container=1;dropTarget=0;collapsible=0;recursiveResize=0;outlineConnect=0;portConstraint=eastwest;newEdgeStyle={&quot;edgeStyle&quot;:&quot;elbowEdgeStyle&quot;,&quot;elbow&quot;:&quot;vertical&quot;,&quot;curved&quot;:0,&quot;rounded&quot;:0};participant=umlControl;" vertex="1" parent="1">
          <mxGeometry x="640" y="330" width="100" height="950" as="geometry" />
        </mxCell>
        <mxCell id="PmZG84Nu5TXr525l0W39-4" value="登录页面" style="shape=umlLifeline;perimeter=lifelinePerimeter;whiteSpace=wrap;html=1;container=1;dropTarget=0;collapsible=0;recursiveResize=0;outlineConnect=0;portConstraint=eastwest;newEdgeStyle={&quot;edgeStyle&quot;:&quot;elbowEdgeStyle&quot;,&quot;elbow&quot;:&quot;vertical&quot;,&quot;curved&quot;:0,&quot;rounded&quot;:0};participant=umlControl;" vertex="1" parent="1">
          <mxGeometry x="770" y="330" width="100" height="940" as="geometry" />
        </mxCell>
        <mxCell id="PmZG84Nu5TXr525l0W39-5" value="&lt;font style=&quot;font-size: 11px;&quot;&gt;index&lt;span style=&quot;font-family: 宋体; font-size: 11px;&quot;&gt;请求方法、&lt;/span&gt;&lt;span style=&quot;font-family: Calibri, sans-serif; font-size: 11px;&quot; lang=&quot;EN-US&quot;&gt;&amp;nbsp;/main/index.do&lt;/span&gt;&lt;span style=&quot;font-family: 宋体; font-size: 11px;&quot;&gt;（&lt;/span&gt;&lt;span style=&quot;font-family: Calibri, sans-serif; font-size: 11px;&quot; lang=&quot;EN-US&quot;&gt;get&lt;/span&gt;&lt;span style=&quot;font-family: 宋体; font-size: 11px;&quot;&gt;请求）&lt;/span&gt;&lt;/font&gt;&lt;span style=&quot;border-color: var(--border-color); font-family: Calibri, sans-serif;&quot; lang=&quot;EN-US&quot;&gt;&amp;nbsp;&lt;/span&gt;" style="html=1;verticalAlign=bottom;endArrow=block;edgeStyle=elbowEdgeStyle;elbow=vertical;curved=0;rounded=0;" edge="1" parent="1" source="PmZG84Nu5TXr525l0W39-1" target="PmZG84Nu5TXr525l0W39-2">
          <mxGeometry width="80" relative="1" as="geometry">
            <mxPoint x="150" y="400" as="sourcePoint" />
            <mxPoint x="270" y="420" as="targetPoint" />
            <Array as="points">
              <mxPoint x="250" y="420" />
            </Array>
            <mxPoint as="offset" />
          </mxGeometry>
        </mxCell>
        <mxCell id="PmZG84Nu5TXr525l0W39-6" value="返回请求跳转到首页面" style="html=1;verticalAlign=bottom;endArrow=open;dashed=1;endSize=8;edgeStyle=elbowEdgeStyle;elbow=vertical;curved=0;rounded=0;" edge="1" parent="1" source="PmZG84Nu5TXr525l0W39-2" target="PmZG84Nu5TXr525l0W39-1">
          <mxGeometry relative="1" as="geometry">
            <mxPoint x="170" y="450" as="sourcePoint" />
            <mxPoint x="100" y="460" as="targetPoint" />
            <Array as="points">
              <mxPoint x="210" y="450" />
            </Array>
          </mxGeometry>
        </mxCell>
        <mxCell id="PmZG84Nu5TXr525l0W39-7" value="worksList&lt;span style=&quot;font-size:10.5pt;&lt;br/&gt;mso-bidi-font-size:11.0pt;font-family:宋体;mso-ascii-font-family:Calibri;&lt;br/&gt;mso-hansi-font-family:Calibri;mso-bidi-font-family:&amp;quot;Times New Roman&amp;quot;;&lt;br/&gt;mso-font-kerning:1.0pt;mso-ansi-language:EN-US;mso-fareast-language:ZH-CN;&lt;br/&gt;mso-bidi-language:AR-SA&quot;&gt;请求方法、&lt;/span&gt;/studio/works/list?worksStatus=1&amp;amp;num=4" style="html=1;verticalAlign=bottom;endArrow=block;edgeStyle=elbowEdgeStyle;elbow=vertical;curved=0;rounded=0;" edge="1" parent="1" source="PmZG84Nu5TXr525l0W39-1" target="PmZG84Nu5TXr525l0W39-2">
          <mxGeometry width="80" relative="1" as="geometry">
            <mxPoint x="95" y="420" as="sourcePoint" />
            <mxPoint x="525" y="420" as="targetPoint" />
            <Array as="points">
              <mxPoint x="140" y="500" />
              <mxPoint x="250" y="420" />
            </Array>
            <mxPoint as="offset" />
          </mxGeometry>
        </mxCell>
        <mxCell id="PmZG84Nu5TXr525l0W39-8" value="返回按照创建时间排序前4个作品" style="html=1;verticalAlign=bottom;endArrow=open;dashed=1;endSize=8;edgeStyle=elbowEdgeStyle;elbow=vertical;curved=0;rounded=0;" edge="1" parent="1" source="PmZG84Nu5TXr525l0W39-2" target="PmZG84Nu5TXr525l0W39-1">
          <mxGeometry relative="1" as="geometry">
            <mxPoint x="525" y="450" as="sourcePoint" />
            <mxPoint x="95" y="450" as="targetPoint" />
            <Array as="points">
              <mxPoint x="230" y="530" />
              <mxPoint x="170" y="550" />
              <mxPoint x="210" y="450" />
            </Array>
          </mxGeometry>
        </mxCell>
        <mxCell id="PmZG84Nu5TXr525l0W39-9" value="worksList&lt;span&gt;请求方法、&lt;/span&gt;/main/worksList?worksStatus=1&amp;amp;num=4" style="html=1;verticalAlign=bottom;endArrow=block;edgeStyle=elbowEdgeStyle;elbow=vertical;curved=0;rounded=0;" edge="1" parent="1">
          <mxGeometry width="80" relative="1" as="geometry">
            <mxPoint x="95" y="500" as="sourcePoint" />
            <mxPoint x="525" y="500" as="targetPoint" />
            <Array as="points">
              <mxPoint x="140" y="500" />
              <mxPoint x="250" y="420" />
            </Array>
            <mxPoint as="offset" />
          </mxGeometry>
        </mxCell>
        <mxCell id="PmZG84Nu5TXr525l0W39-10" value="返回按照创建时间排序前4个新闻" style="html=1;verticalAlign=bottom;endArrow=open;dashed=1;endSize=8;edgeStyle=elbowEdgeStyle;elbow=vertical;curved=0;rounded=0;" edge="1" parent="1" source="PmZG84Nu5TXr525l0W39-2" target="PmZG84Nu5TXr525l0W39-1">
          <mxGeometry relative="1" as="geometry">
            <mxPoint x="525" y="530" as="sourcePoint" />
            <mxPoint x="95" y="530" as="targetPoint" />
            <Array as="points">
              <mxPoint x="200" y="620" />
              <mxPoint x="160" y="630" />
              <mxPoint x="230" y="530" />
              <mxPoint x="170" y="550" />
              <mxPoint x="210" y="450" />
            </Array>
          </mxGeometry>
        </mxCell>
        <mxCell id="PmZG84Nu5TXr525l0W39-11" value="articleList&lt;span&gt;请求方法、&lt;/span&gt;/main/articleList?articleStatus=1&amp;amp;num=4" style="html=1;verticalAlign=bottom;endArrow=block;edgeStyle=elbowEdgeStyle;elbow=vertical;curved=0;rounded=0;" edge="1" parent="1" source="PmZG84Nu5TXr525l0W39-1" target="PmZG84Nu5TXr525l0W39-2">
          <mxGeometry width="80" relative="1" as="geometry">
            <mxPoint x="95" y="420" as="sourcePoint" />
            <mxPoint x="525" y="420" as="targetPoint" />
            <Array as="points">
              <mxPoint x="160" y="680" />
              <mxPoint x="250" y="420" />
            </Array>
            <mxPoint as="offset" />
          </mxGeometry>
        </mxCell>
        <mxCell id="PmZG84Nu5TXr525l0W39-12" value="返回按照时间排序前4个文章" style="html=1;verticalAlign=bottom;endArrow=open;dashed=1;endSize=8;edgeStyle=elbowEdgeStyle;elbow=vertical;curved=0;rounded=0;" edge="1" parent="1" source="PmZG84Nu5TXr525l0W39-2" target="PmZG84Nu5TXr525l0W39-1">
          <mxGeometry relative="1" as="geometry">
            <mxPoint x="525" y="620" as="sourcePoint" />
            <mxPoint x="95" y="620" as="targetPoint" />
            <Array as="points">
              <mxPoint x="180" y="710" />
              <mxPoint x="150" y="720" />
              <mxPoint x="200" y="620" />
              <mxPoint x="160" y="630" />
              <mxPoint x="230" y="530" />
              <mxPoint x="170" y="550" />
              <mxPoint x="210" y="450" />
            </Array>
          </mxGeometry>
        </mxCell>
        <mxCell id="PmZG84Nu5TXr525l0W39-13" value="memberList请求方法、&lt;span&gt;&lt;span lang=&quot;EN-US&quot;&gt;/main/memberList?memberStatus=1&lt;/span&gt;&lt;/span&gt;" style="html=1;verticalAlign=bottom;endArrow=block;edgeStyle=elbowEdgeStyle;elbow=vertical;curved=0;rounded=0;" edge="1" parent="1" source="PmZG84Nu5TXr525l0W39-1" target="PmZG84Nu5TXr525l0W39-2">
          <mxGeometry width="80" relative="1" as="geometry">
            <mxPoint x="95" y="420" as="sourcePoint" />
            <mxPoint x="525" y="420" as="targetPoint" />
            <Array as="points">
              <mxPoint x="140" y="760" />
              <mxPoint x="250" y="420" />
            </Array>
            <mxPoint as="offset" />
          </mxGeometry>
        </mxCell>
        <mxCell id="PmZG84Nu5TXr525l0W39-14" value="返回所有启用的成员信息，也就是多个member对象" style="html=1;verticalAlign=bottom;endArrow=open;dashed=1;endSize=8;edgeStyle=elbowEdgeStyle;elbow=vertical;curved=0;rounded=0;" edge="1" parent="1" source="PmZG84Nu5TXr525l0W39-2" target="PmZG84Nu5TXr525l0W39-1">
          <mxGeometry relative="1" as="geometry">
            <mxPoint x="525" y="710" as="sourcePoint" />
            <mxPoint x="95" y="710" as="targetPoint" />
            <Array as="points">
              <mxPoint x="220" y="800" />
              <mxPoint x="180" y="710" />
              <mxPoint x="150" y="720" />
              <mxPoint x="200" y="620" />
              <mxPoint x="160" y="630" />
              <mxPoint x="230" y="530" />
              <mxPoint x="170" y="550" />
              <mxPoint x="210" y="450" />
            </Array>
          </mxGeometry>
        </mxCell>
        <mxCell id="PmZG84Nu5TXr525l0W39-15" value="newsList请求方法、/main/newsList?newsStatus=1&amp;amp;num=4&amp;nbsp;" style="html=1;verticalAlign=bottom;endArrow=block;edgeStyle=elbowEdgeStyle;elbow=vertical;curved=0;rounded=0;" edge="1" parent="1" source="PmZG84Nu5TXr525l0W39-1" target="PmZG84Nu5TXr525l0W39-2">
          <mxGeometry width="80" relative="1" as="geometry">
            <mxPoint x="95" y="420" as="sourcePoint" />
            <mxPoint x="525" y="420" as="targetPoint" />
            <Array as="points">
              <mxPoint x="150" y="580" />
              <mxPoint x="110" y="570" />
              <mxPoint x="250" y="420" />
            </Array>
            <mxPoint as="offset" />
          </mxGeometry>
        </mxCell>
        <mxCell id="PmZG84Nu5TXr525l0W39-16" value="点击login图片" style="text;html=1;align=center;verticalAlign=middle;resizable=0;points=[];autosize=1;strokeColor=none;fillColor=none;" vertex="1" parent="1">
          <mxGeometry x="120" y="380" width="100" height="30" as="geometry" />
        </mxCell>
        <mxCell id="PmZG84Nu5TXr525l0W39-17" value="点击关于我们、about方法、发送&lt;span lang=&quot;EN-US&quot;&gt;/main/about&lt;/span&gt;" style="html=1;verticalAlign=bottom;endArrow=block;edgeStyle=elbowEdgeStyle;elbow=vertical;curved=0;rounded=0;" edge="1" parent="1" target="PmZG84Nu5TXr525l0W39-2">
          <mxGeometry width="80" relative="1" as="geometry">
            <mxPoint x="100" y="880" as="sourcePoint" />
            <mxPoint x="180" y="880" as="targetPoint" />
          </mxGeometry>
        </mxCell>
        <mxCell id="PmZG84Nu5TXr525l0W39-18" value="" style="endArrow=block;dashed=1;endFill=0;endSize=12;html=1;rounded=0;" edge="1" parent="1" target="PmZG84Nu5TXr525l0W39-3">
          <mxGeometry width="160" relative="1" as="geometry">
            <mxPoint x="520" y="900" as="sourcePoint" />
            <mxPoint x="690" y="900" as="targetPoint" />
          </mxGeometry>
        </mxCell>
        <mxCell id="PmZG84Nu5TXr525l0W39-19" value="跳转到关于我们页面" style="edgeLabel;html=1;align=center;verticalAlign=middle;resizable=0;points=[];" vertex="1" connectable="0" parent="PmZG84Nu5TXr525l0W39-18">
          <mxGeometry x="0.0839" y="-1" relative="1" as="geometry">
            <mxPoint x="-16" as="offset" />
          </mxGeometry>
        </mxCell>
        <mxCell id="PmZG84Nu5TXr525l0W39-20" value="点击登录按钮、login方法、/main/login" style="html=1;verticalAlign=bottom;endArrow=block;edgeStyle=elbowEdgeStyle;elbow=vertical;curved=0;rounded=0;" edge="1" parent="1" target="PmZG84Nu5TXr525l0W39-2">
          <mxGeometry width="80" relative="1" as="geometry">
            <mxPoint x="100" y="950" as="sourcePoint" />
            <mxPoint x="180" y="950" as="targetPoint" />
          </mxGeometry>
        </mxCell>
        <mxCell id="PmZG84Nu5TXr525l0W39-21" value="" style="endArrow=block;dashed=1;endFill=0;endSize=12;html=1;rounded=0;" edge="1" parent="1" target="PmZG84Nu5TXr525l0W39-4">
          <mxGeometry width="160" relative="1" as="geometry">
            <mxPoint x="520" y="980" as="sourcePoint" />
            <mxPoint x="1064" y="980" as="targetPoint" />
          </mxGeometry>
        </mxCell>
        <mxCell id="PmZG84Nu5TXr525l0W39-22" value="跳转到登录页面" style="edgeLabel;html=1;align=center;verticalAlign=middle;resizable=0;points=[];" vertex="1" connectable="0" parent="PmZG84Nu5TXr525l0W39-21">
          <mxGeometry x="-0.4142" relative="1" as="geometry">
            <mxPoint x="141" as="offset" />
          </mxGeometry>
        </mxCell>
        <mxCell id="PmZG84Nu5TXr525l0W39-23" value="点击更多作品、worksMore请求方法、/main/worksMore" style="html=1;verticalAlign=bottom;endArrow=block;edgeStyle=elbowEdgeStyle;elbow=vertical;curved=0;rounded=0;" edge="1" parent="1" target="PmZG84Nu5TXr525l0W39-2">
          <mxGeometry x="-0.0012" width="80" relative="1" as="geometry">
            <mxPoint x="100" y="1020" as="sourcePoint" />
            <mxPoint x="180" y="1020" as="targetPoint" />
            <mxPoint as="offset" />
          </mxGeometry>
        </mxCell>
        <mxCell id="PmZG84Nu5TXr525l0W39-24" value="更多作品页面" style="shape=umlLifeline;perimeter=lifelinePerimeter;whiteSpace=wrap;html=1;container=1;dropTarget=0;collapsible=0;recursiveResize=0;outlineConnect=0;portConstraint=eastwest;newEdgeStyle={&quot;edgeStyle&quot;:&quot;elbowEdgeStyle&quot;,&quot;elbow&quot;:&quot;vertical&quot;,&quot;curved&quot;:0,&quot;rounded&quot;:0};participant=umlControl;" vertex="1" parent="1">
          <mxGeometry x="930" y="330" width="80" height="940" as="geometry" />
        </mxCell>
        <mxCell id="PmZG84Nu5TXr525l0W39-25" value="" style="endArrow=block;dashed=1;endFill=0;endSize=12;html=1;rounded=0;" edge="1" parent="1" target="PmZG84Nu5TXr525l0W39-24">
          <mxGeometry width="160" relative="1" as="geometry">
            <mxPoint x="520" y="1050" as="sourcePoint" />
            <mxPoint x="680" y="1050" as="targetPoint" />
          </mxGeometry>
        </mxCell>
        <mxCell id="PmZG84Nu5TXr525l0W39-26" value="跳转到更多作品页面" style="edgeLabel;html=1;align=center;verticalAlign=middle;resizable=0;points=[];" vertex="1" connectable="0" parent="PmZG84Nu5TXr525l0W39-25">
          <mxGeometry x="0.0434" y="-2" relative="1" as="geometry">
            <mxPoint x="140" as="offset" />
          </mxGeometry>
        </mxCell>
        <mxCell id="PmZG84Nu5TXr525l0W39-27" value="点击更多新闻、newsMore请求方法、/main/worksMore" style="html=1;verticalAlign=bottom;endArrow=block;edgeStyle=elbowEdgeStyle;elbow=vertical;curved=0;rounded=0;" edge="1" parent="1" target="PmZG84Nu5TXr525l0W39-2">
          <mxGeometry x="-0.0012" width="80" relative="1" as="geometry">
            <mxPoint x="100" y="1080" as="sourcePoint" />
            <mxPoint x="525" y="1020" as="targetPoint" />
            <Array as="points">
              <mxPoint x="180" y="1080" />
            </Array>
            <mxPoint as="offset" />
          </mxGeometry>
        </mxCell>
        <mxCell id="PmZG84Nu5TXr525l0W39-28" value="更多新闻页面" style="shape=umlLifeline;perimeter=lifelinePerimeter;whiteSpace=wrap;html=1;container=1;dropTarget=0;collapsible=0;recursiveResize=0;outlineConnect=0;portConstraint=eastwest;newEdgeStyle={&quot;edgeStyle&quot;:&quot;elbowEdgeStyle&quot;,&quot;elbow&quot;:&quot;vertical&quot;,&quot;curved&quot;:0,&quot;rounded&quot;:0};participant=umlControl;" vertex="1" parent="1">
          <mxGeometry x="1060" y="330" width="80" height="930" as="geometry" />
        </mxCell>
        <mxCell id="PmZG84Nu5TXr525l0W39-29" value="" style="endArrow=block;dashed=1;endFill=0;endSize=12;html=1;rounded=0;" edge="1" parent="1" target="PmZG84Nu5TXr525l0W39-28">
          <mxGeometry width="160" relative="1" as="geometry">
            <mxPoint x="520" y="1120" as="sourcePoint" />
            <mxPoint x="680" y="1120" as="targetPoint" />
          </mxGeometry>
        </mxCell>
        <mxCell id="PmZG84Nu5TXr525l0W39-30" value="跳转到更多新闻页面" style="edgeLabel;html=1;align=center;verticalAlign=middle;resizable=0;points=[];" vertex="1" connectable="0" parent="PmZG84Nu5TXr525l0W39-29">
          <mxGeometry x="0.0992" y="2" relative="1" as="geometry">
            <mxPoint x="192" as="offset" />
          </mxGeometry>
        </mxCell>
        <mxCell id="PmZG84Nu5TXr525l0W39-31" value="点击更多文章、articleMore请求方法、/main/articleMore" style="html=1;verticalAlign=bottom;endArrow=block;edgeStyle=elbowEdgeStyle;elbow=vertical;curved=0;rounded=0;" edge="1" parent="1" target="PmZG84Nu5TXr525l0W39-2">
          <mxGeometry x="-0.0012" width="80" relative="1" as="geometry">
            <mxPoint x="100" y="1160" as="sourcePoint" />
            <mxPoint x="180" y="1160" as="targetPoint" />
            <mxPoint as="offset" />
          </mxGeometry>
        </mxCell>
        <mxCell id="PmZG84Nu5TXr525l0W39-32" value="" style="endArrow=block;dashed=1;endFill=0;endSize=12;html=1;rounded=0;" edge="1" parent="1" target="PmZG84Nu5TXr525l0W39-34">
          <mxGeometry width="160" relative="1" as="geometry">
            <mxPoint x="520" y="1200" as="sourcePoint" />
            <mxPoint x="1376" y="1190" as="targetPoint" />
          </mxGeometry>
        </mxCell>
        <mxCell id="PmZG84Nu5TXr525l0W39-33" value="跳转到更多文章页面" style="edgeLabel;html=1;align=center;verticalAlign=middle;resizable=0;points=[];" vertex="1" connectable="0" parent="PmZG84Nu5TXr525l0W39-32">
          <mxGeometry x="0.0472" y="3" relative="1" as="geometry">
            <mxPoint x="264" as="offset" />
          </mxGeometry>
        </mxCell>
        <mxCell id="PmZG84Nu5TXr525l0W39-34" value="更多文章页面" style="shape=umlLifeline;perimeter=lifelinePerimeter;whiteSpace=wrap;html=1;container=1;dropTarget=0;collapsible=0;recursiveResize=0;outlineConnect=0;portConstraint=eastwest;newEdgeStyle={&quot;edgeStyle&quot;:&quot;elbowEdgeStyle&quot;,&quot;elbow&quot;:&quot;vertical&quot;,&quot;curved&quot;:0,&quot;rounded&quot;:0};participant=umlControl;" vertex="1" parent="1">
          <mxGeometry x="1180" y="330" width="100" height="930" as="geometry" />
        </mxCell>
        <mxCell id="PmZG84Nu5TXr525l0W39-35" value="" style="ellipse;html=1;shape=startState;fillColor=#000000;strokeColor=#ff0000;" vertex="1" parent="1">
          <mxGeometry x="-250" y="380" width="30" height="30" as="geometry" />
        </mxCell>
        <mxCell id="PmZG84Nu5TXr525l0W39-36" value="" style="edgeStyle=orthogonalEdgeStyle;html=1;verticalAlign=bottom;endArrow=open;endSize=8;strokeColor=#ff0000;rounded=0;" edge="1" parent="1" source="PmZG84Nu5TXr525l0W39-35">
          <mxGeometry relative="1" as="geometry">
            <mxPoint x="40" y="395" as="targetPoint" />
          </mxGeometry>
        </mxCell>
        <mxCell id="PmZG84Nu5TXr525l0W39-37" value="用户在地址栏上输入url，进入首页" style="edgeLabel;html=1;align=center;verticalAlign=middle;resizable=0;points=[];" vertex="1" connectable="0" parent="PmZG84Nu5TXr525l0W39-36">
          <mxGeometry x="-0.1818" y="-5" relative="1" as="geometry">
            <mxPoint as="offset" />
          </mxGeometry>
        </mxCell>
      </root>
    </mxGraphModel>
  </diagram>
</mxfile>
